<svg width="47.404" height="153.71" clip-rule="evenodd" stroke-linecap="round" stroke-linejoin="round" version="1.1" viewBox="0 0 47.404 153.71" xml:space="preserve" xmlns="http://www.w3.org/2000/svg">
    <path d="m7.1343 70.359c-0.638 0.638-0.722 2.165-1.624 2.165-0.361 0-0.087-0.732 0-1.082 0.333-1.333 1.009-2.56 1.624-3.789 0.83-1.661 1.849-3.222 2.706-4.87 3.163-6.084 5.991-12.34 9.2-18.4 6.107-11.537 13.457-22.297 20.023-33.553 1.089-1.867 4.24-8.659 4.33-8.659 0.721 0 0.109 1.451 0 2.164-0.253 1.644-0.798 3.232-1.083 4.871-1.875 10.78-4.028 21.245-6.494 31.93-3.08 13.347-5.972 26.732-9.2 40.047-0.701 2.891-0.061 6.555-2.165 8.659-0.382 0.382-0.053-1.085 0-1.624 0.127-1.269 0.467-2.515 0.542-3.788 0.299-5.093 0.294-10.248-2.706-14.612-3.07-4.465-7.544-8.249-11.906-11.365-0.671-0.479-4.923-3.33-5.953-3.788-0.68-0.302-2.691-0.015-2.165-0.541 0.749-0.749 6.458-0.541 7.035-0.541h17.859 6.494c1.784 0 9.71-1.124 11.365 1.082 0.902 1.202-1.311 8.255-1.623 10.282-0.415 2.699-0.569 5.437-1.083 8.118-1.111 5.804-2.486 11.554-3.788 17.318-4.653 20.608-10.706 40.918-16.776 61.153" fill="none" stroke="#fff" stroke-linecap="round" stroke-linejoin="round" stroke-width="4.343"/>
</svg>

